<svg width="25" height="24" viewBox="0 0 25 24" fill="none" xmlns="http://www.w3.org/2000/svg">
<g clip-path="url(#clip0_124_126)">
<path d="M16.5215 0C15.7265 0.001 14.7275 0.095 13.3545 0.313L8.75447 1.042C5.61647 1.539 4.53047 2.045 3.48047 2.84C2.44206 3.61987 1.6617 4.69355 1.24047 5.922C0.810474 7.167 0.663474 8.356 1.16047 11.493L1.88947 16.093C2.38647 19.231 2.89247 20.313 3.68747 21.366C4.46735 22.4044 5.54103 23.1848 6.76947 23.606C8.01447 24.037 9.20347 24.184 12.3405 23.687L16.9405 22.958C20.0785 22.461 21.1605 21.955 22.2135 21.159C23.2521 20.3797 24.0325 19.3063 24.4535 18.078C24.8845 16.833 25.0315 15.644 24.5355 12.507L23.8055 7.907C23.3085 4.769 22.8025 3.683 22.0065 2.633C21.2272 1.59439 20.1538 0.813964 18.9255 0.393C18.2255 0.152 17.5425 0 16.5215 0ZM11.2025 4.566C11.2035 4.566 11.2045 4.566 11.2055 4.566C11.3312 4.56465 11.4531 4.60888 11.5487 4.69051C11.6443 4.77214 11.7071 4.88564 11.7255 5.01L12.4955 9.875C12.5069 9.94302 12.5046 10.0126 12.4888 10.0798C12.4731 10.1469 12.4441 10.2102 12.4036 10.2661C12.3631 10.3219 12.3119 10.3692 12.253 10.405C12.1941 10.4409 12.1287 10.4647 12.0605 10.475L7.20147 11.245C7.13323 11.2567 7.06334 11.2546 6.99591 11.2389C6.92848 11.2232 6.86486 11.1942 6.80879 11.1536C6.75272 11.113 6.70532 11.0616 6.66938 11.0024C6.63343 10.9432 6.60967 10.8775 6.59947 10.809L5.82947 5.943C5.81809 5.87498 5.82034 5.80537 5.83611 5.73823C5.85189 5.67109 5.88086 5.60775 5.92134 5.55191C5.96182 5.49608 6.01301 5.44885 6.07192 5.41298C6.13083 5.37712 6.19628 5.35333 6.26447 5.343L11.1245 4.573C11.1503 4.56871 11.1763 4.56637 11.2025 4.566ZM10.7675 5.692L6.94447 6.297L7.55647 10.127L11.3695 9.522L10.7675 5.692ZM17.2715 8.602C18.1001 8.59695 18.8998 8.90629 19.5094 9.46764C20.1189 10.029 20.4929 10.8006 20.5559 11.6268C20.619 12.4531 20.3664 13.2725 19.8491 13.9198C19.3318 14.5672 18.5883 14.9943 17.7685 15.115C16.9146 15.2456 16.0439 15.0319 15.3476 14.5207C14.6514 14.0095 14.1866 13.2428 14.0555 12.389C13.9815 11.923 14.0092 11.4465 14.1366 10.9921C14.264 10.5378 14.488 10.1163 14.7935 9.75668C15.0989 9.39701 15.4785 9.10762 15.9062 8.90832C16.3339 8.70902 16.7996 8.60453 17.2715 8.602ZM17.2175 9.66C16.9098 9.66167 16.6057 9.72713 16.3246 9.85222C16.0435 9.97732 15.7913 10.1593 15.5841 10.3868C15.3769 10.6143 15.219 10.8822 15.1206 11.1738C15.0221 11.4653 14.9852 11.7741 15.0121 12.0806C15.039 12.3872 15.1292 12.6848 15.2769 12.9547C15.4247 13.2246 15.6268 13.461 15.8705 13.6489C16.1141 13.8368 16.3941 13.9721 16.6928 14.0463C16.9914 14.1205 17.3022 14.132 17.6055 14.08C17.8918 14.0327 18.1659 13.9294 18.4123 13.7761C18.6586 13.6227 18.8723 13.4223 19.0412 13.1863C19.21 12.9503 19.3307 12.6834 19.3963 12.4007C19.4619 12.1181 19.4711 11.8252 19.4235 11.539C19.3406 11.014 19.0727 10.536 18.6681 10.1914C18.2635 9.84677 17.7489 9.65828 17.2175 9.66ZM10.7675 12.66C10.8495 12.6587 10.9308 12.6769 11.0044 12.7131C11.0781 12.7492 11.1422 12.8023 11.1915 12.868L15.0155 17.832C15.0726 17.9036 15.1098 17.9891 15.1233 18.0797C15.1368 18.1703 15.1261 18.2629 15.0923 18.3481C15.0585 18.4332 15.0028 18.5079 14.9308 18.5646C14.8588 18.6214 14.7732 18.658 14.6825 18.671L8.75047 19.608C8.66021 19.6237 8.5674 19.6153 8.48144 19.5836C8.39548 19.5519 8.31941 19.4981 8.26095 19.4275C8.20249 19.357 8.1637 19.2722 8.14851 19.1819C8.13333 19.0915 8.14228 18.9988 8.17447 18.913L10.2825 13.012C10.3172 12.9103 10.3825 12.8219 10.4696 12.7588C10.5566 12.6958 10.661 12.6613 10.7685 12.66H10.7675ZM10.9475 14.271L9.45747 18.438L13.6435 17.774L10.9475 14.271Z" fill="#FF4E01"/>
</g>
<defs>
<clipPath id="clip0_124_126">
<rect width="24" height="24" fill="white" transform="translate(0.847473)"/>
</clipPath>
</defs>
</svg>
