<svg width="93" height="93" viewBox="0 0 93 93" fill="none" xmlns="http://www.w3.org/2000/svg">
<path d="M93 46.5C93 52.6065 91.7972 58.6531 89.4604 64.2948C87.1236 69.9364 83.6984 75.0625 79.3805 79.3805C75.0625 83.6984 69.9364 87.1236 64.2948 89.4604C58.6531 91.7972 52.6065 93 46.5 93C40.3935 93 34.3469 91.7972 28.7052 89.4604C23.0636 87.1236 17.9375 83.6984 13.6195 79.3805C9.30161 75.0625 5.87644 69.9364 3.5396 64.2948C1.20276 58.6531 -5.33844e-07 52.6065 0 46.5L46.5 46.5H93Z" fill="#EFADAD"/>
<circle cx="21" cy="23" r="18" fill="#FF4E01"/>
<circle cx="71" cy="23" r="18" fill="#D9D9D9" fill-opacity="0.3"/>
<line x1="69.9914" y1="6.13521" x2="54.6417" y2="18.9565" stroke="#CF0A0A"/>
<line x1="87.9914" y1="27.1352" x2="72.6417" y2="39.9565" stroke="#CF0A0A"/>
<line x1="75.9914" y1="6.13521" x2="52.9668" y2="25.3671" stroke="#CF0A0A"/>
<line x1="88.9914" y1="20.1352" x2="65.9668" y2="39.3671" stroke="#CF0A0A"/>
<line x1="80.9914" y1="8.13521" x2="54.1294" y2="30.5724" stroke="#CF0A0A"/>
<line x1="83.9914" y1="12.1352" x2="57.1294" y2="34.5724" stroke="#CF0A0A"/>
<line x1="86.9914" y1="16.1352" x2="60.8968" y2="37.9314" stroke="#CF0A0A"/>
</svg>
