<svg width="25" height="24" viewBox="0 0 25 24" fill="none" xmlns="http://www.w3.org/2000/svg">
<path d="M10.5 22H14.5M8.5 15H16.5M5.5 9C5.5 7.14348 6.2375 5.36301 7.55025 4.05025C8.86301 2.7375 10.6435 2 12.5 2C14.3565 2 16.137 2.7375 17.4497 4.05025C18.7625 5.36301 19.5 7.14348 19.5 9C19.5007 10.1271 19.2281 11.2375 18.7056 12.2362C18.1831 13.2348 17.4263 14.0919 16.5 14.734L15.958 17.3C15.8862 17.773 15.6473 18.2046 15.2846 18.5165C14.9219 18.8284 14.4594 18.9999 13.981 19H11.019C10.5406 18.9999 10.0781 18.8284 9.71539 18.5165C9.35267 18.2046 9.11376 17.773 9.042 17.3L8.5 14.745C7.57341 14.1006 6.81657 13.2415 6.29415 12.2411C5.77173 11.2407 5.49926 10.1286 5.5 9V9Z" stroke="#FF4E01" stroke-width="2" stroke-linecap="round" stroke-linejoin="round"/>
</svg>
