<svg width="25" height="24" viewBox="0 0 25 24" fill="none" xmlns="http://www.w3.org/2000/svg">
<path d="M5.45458 1.92944L3.25005 1.99085L4.62349 3.71819L5.93739 3.24054L5.45458 1.92944ZM19.5452 1.92944L19.0624 3.24101L20.3749 3.71913L21.7483 1.99132L19.5452 1.92944ZM6.49521 2.31288L7.01552 3.74397L5.58583 4.26616L17.8765 9.98913L18.7858 8.03913L6.49521 2.31288ZM18.5046 2.31288L13.503 4.64257L16.053 5.83132L19.414 4.26663L17.9843 3.74444L18.5046 2.31288ZM8.94677 6.76413L6.21396 8.03913L7.12333 9.98913L11.4968 7.95476L8.94677 6.76413ZM20.2483 6.89538L17.9421 11.8407L18.5515 12.5391L21.1718 6.91413L20.2483 6.89538ZM4.75005 6.90007L3.8313 6.91882L6.44833 12.5344L7.05302 11.8407L4.75005 6.90007ZM21.1296 8.99538L19.6952 12.0704L18.1015 16.0407L15.4858 17.6016C15.3405 17.9438 15.1671 18.2579 14.9608 18.5391C14.3608 19.3688 13.4843 19.9219 12.4999 19.9219C11.5155 19.9219 10.639 19.3688 10.039 18.5391C9.83271 18.2532 9.65458 17.9391 9.50927 17.5923L6.92646 16.036L5.61864 12.7548L3.87817 9.01882L2.49536 9.92819L4.62817 17.0438L8.43583 21.5954V22.8282H16.5921V21.6001L20.3702 17.0485L22.5077 9.92819L21.1296 8.99538ZM12.4999 11.6719C11.8296 11.6719 11.2015 12.0423 10.7186 12.7079C10.2358 13.3688 9.92177 14.3204 9.92177 15.3751C9.92177 16.4298 10.2358 17.3813 10.7186 18.0423C11.2015 18.7079 11.8296 19.0782 12.4999 19.0782C13.1702 19.0782 13.7983 18.7079 14.2811 18.0423C14.764 17.3813 15.078 16.4298 15.078 15.3751C15.078 14.3204 14.764 13.3688 14.2811 12.7079C13.7983 12.0423 13.1702 11.6719 12.4999 11.6719Z" fill="#FF4E01"/>
</svg>
