<svg width="25" height="24" viewBox="0 0 25 24" fill="none" xmlns="http://www.w3.org/2000/svg">
<g clip-path="url(#clip0_143_67)">
<path d="M12.4999 11.3333C13.4229 11.3333 14.3252 11.0596 15.0926 10.5469C15.86 10.0341 16.4581 9.30525 16.8114 8.45252C17.1646 7.5998 17.257 6.66149 17.0769 5.75625C16.8969 4.851 16.4524 4.01948 15.7998 3.36684C15.1471 2.71419 14.3156 2.26974 13.4103 2.08967C12.5051 1.90961 11.5668 2.00202 10.7141 2.35523C9.86134 2.70844 9.13251 3.30658 8.61973 4.07401C8.10695 4.84144 7.83325 5.74369 7.83325 6.66667C7.83325 7.90435 8.32492 9.09133 9.20009 9.9665C10.0753 10.8417 11.2622 11.3333 12.4999 11.3333ZM12.4999 3.33334C13.1592 3.33334 13.8037 3.52883 14.3518 3.8951C14.9 4.26137 15.3272 4.78197 15.5795 5.39106C15.8318 6.00014 15.8978 6.67037 15.7692 7.31697C15.6406 7.96357 15.3231 8.55752 14.8569 9.02369C14.3908 9.48987 13.7968 9.80734 13.1502 9.93595C12.5036 10.0646 11.8334 9.99856 11.2243 9.74627C10.6152 9.49397 10.0946 9.06673 9.72835 8.51857C9.36208 7.97041 9.16659 7.32594 9.16659 6.66667C9.16659 5.78261 9.51777 4.93477 10.1429 4.30965C10.768 3.68452 11.6159 3.33334 12.4999 3.33334Z" fill="#FF4E01"/>
<path d="M20.8133 16.2468C19.7441 15.1168 18.4558 14.2167 17.0269 13.6016C15.5981 12.9865 14.0589 12.6692 12.5033 12.6692C10.9476 12.6692 9.40838 12.9865 7.97956 13.6016C6.55074 14.2167 5.26238 15.1168 4.19325 16.2468C3.96146 16.4944 3.83273 16.821 3.83325 17.1601V20.6668C3.83325 21.0204 3.97373 21.3595 4.22378 21.6096C4.47383 21.8596 4.81296 22.0001 5.16659 22.0001H19.8333C20.1869 22.0001 20.526 21.8596 20.7761 21.6096C21.0261 21.3595 21.1666 21.0204 21.1666 20.6668V17.1601C21.1689 16.8219 21.0426 16.4954 20.8133 16.2468ZM19.8333 20.6668H5.16659V17.1534C6.11141 16.1586 7.24878 15.3663 8.50949 14.825C9.7702 14.2836 11.1279 14.0044 12.4999 14.0044C13.872 14.0044 15.2296 14.2836 16.4903 14.825C17.7511 15.3663 18.8884 16.1586 19.8333 17.1534V20.6668Z" fill="#FF4E01"/>
</g>
<defs>
<clipPath id="clip0_143_67">
<rect width="24" height="24" fill="white" transform="translate(0.5)"/>
</clipPath>
</defs>
</svg>
