<svg width="25" height="24" viewBox="0 0 25 24" fill="none" xmlns="http://www.w3.org/2000/svg">
<path d="M1.44349 2.4751V5.24007L12.2403 11.4915C13.4763 10.1404 15.5257 9.77902 17.1769 10.7324C18.8311 11.6874 19.5424 13.6483 18.9847 15.3966L23.7495 18.1554L20.7154 14.6562L22.3859 12.9053L19.7013 12.545L23.6726 8.4706L17.7799 10.0262L18.3891 4.39144L15.2682 8.90846L13.9816 5.13066L13.2151 9.29175L1.44349 2.4751ZM1.44349 7.4026L1.44312 7.40344L1.44344 7.40368V7.40274L1.44349 7.4026ZM1.44349 7.40363L1.4434 11.509L8.72515 15.7254L4.50921 17.2858H10.8604L7.87647 21.9672L13.3243 18.682L14.0635 22.7063L15.8702 18.9559L18.8543 23.0348L18.5799 18.9545L22.824 19.764L18.024 16.989C16.7796 18.253 14.7948 18.5708 13.1873 17.6427C11.5784 16.7138 10.8613 14.8336 11.3362 13.1228L1.44349 7.40363ZM16.2841 13.0025C16.2402 13.0023 16.1964 13.0038 16.1526 13.0068C15.5704 13.0471 15.0199 13.3681 14.7042 13.915C14.5838 14.1218 14.5055 14.3504 14.4738 14.5875C14.4422 14.8247 14.4577 15.0658 14.5197 15.297C14.5816 15.5281 14.6887 15.7447 14.8347 15.9343C14.9807 16.1239 15.1628 16.2827 15.3705 16.4016C15.5773 16.522 15.8058 16.6003 16.043 16.6319C16.2802 16.6636 16.5213 16.648 16.7525 16.5861C16.9836 16.5242 17.2002 16.4171 17.3898 16.2711C17.5794 16.1251 17.7382 15.943 17.8571 15.7353C17.9775 15.5285 18.0558 15.2999 18.0874 15.0627C18.1191 14.8255 18.1035 14.5844 18.0416 14.3533C17.9796 14.1221 17.8726 13.9055 17.7265 13.716C17.5805 13.5264 17.3984 13.3676 17.1907 13.2487C16.9036 13.083 16.5917 13.0035 16.2842 13.0025H16.2841Z" fill="#FF4E01"/>
</svg>
