<svg width="25" height="24" viewBox="0 0 25 24" fill="none" xmlns="http://www.w3.org/2000/svg">
<g clip-path="url(#clip0_143_41)">
<path d="M11 6.00006H12.5V12.0001H11V6.00006ZM6.5 9.00006H0.5V3.00006H2V6.21099C2.52344 5.25006 3.16016 4.38678 3.91016 3.62115C4.66016 2.85553 5.48828 2.20709 6.39453 1.67584C7.30078 1.14459 8.27344 0.730525 9.3125 0.43365C10.3516 0.136775 11.4141 -0.00775616 12.5 5.63402e-05C13.6016 5.63402e-05 14.6641 0.140681 15.6875 0.421931C16.7109 0.703181 17.668 1.10553 18.5586 1.62896C19.4492 2.1524 20.2578 2.7774 20.9844 3.50396C21.7109 4.23053 22.3359 5.04303 22.8594 5.94146C23.3828 6.8399 23.7852 7.79693 24.0664 8.81256C24.3477 9.82818 24.4922 10.8907 24.5 12.0001H23C23 11.0391 22.875 10.1133 22.625 9.22271C22.375 8.33209 22.0234 7.49615 21.5703 6.7149C21.1172 5.93365 20.5664 5.22271 19.918 4.58209C19.2695 3.94146 18.5625 3.39459 17.7969 2.94146C17.0312 2.48834 16.1953 2.13287 15.2891 1.87506C14.3828 1.61724 13.4531 1.49224 12.5 1.50006C11.4922 1.50006 10.5117 1.64068 9.55859 1.92193C8.60547 2.20318 7.71875 2.60553 6.89844 3.12896C6.07812 3.6524 5.33203 4.28131 4.66016 5.01568C3.98828 5.75006 3.44141 6.57818 3.01953 7.50006H6.5V9.00006ZM12.5 13.5001H24.5V15.0001H12.5V13.5001ZM12.5 18.0001H24.5V19.5001H12.5V18.0001ZM12.5 22.5001H24.5V24.0001H12.5V22.5001ZM2.38672 14.8008C2.66797 15.8087 3.07812 16.7422 3.61719 17.6016C4.15625 18.461 4.80469 19.2188 5.5625 19.8751C6.32031 20.5313 7.15625 21.0782 8.07031 21.5157C8.98438 21.9532 9.96094 22.2422 11 22.3829V23.9063C9.79688 23.7422 8.65625 23.418 7.57812 22.9337C6.5 22.4493 5.52344 21.8321 4.64844 21.0821C3.77344 20.3321 3.01953 19.4571 2.38672 18.4571C1.75391 17.4571 1.27344 16.3712 0.945312 15.1993L2.38672 14.8008Z" fill="#FF4E01"/>
</g>
<defs>
<clipPath id="clip0_143_41">
<rect width="24" height="24" fill="white" transform="translate(0.5)"/>
</clipPath>
</defs>
</svg>
