<svg width="24" height="24" viewBox="0 0 24 24" fill="none" xmlns="http://www.w3.org/2000/svg">
<path d="M12 7.19297C9.33983 7.19297 7.19296 9.33984 7.19296 12C7.19296 14.6602 9.33983 16.807 12 16.807C14.6601 16.807 16.807 14.6602 16.807 12C16.807 9.33984 14.6601 7.19297 12 7.19297ZM12 15.1242C10.2797 15.1242 8.87577 13.7203 8.87577 12C8.87577 10.2797 10.2797 8.87578 12 8.87578C13.7203 8.87578 15.1242 10.2797 15.1242 12C15.1242 13.7203 13.7203 15.1242 12 15.1242ZM17.0039 5.87578C16.3828 5.87578 15.8812 6.37734 15.8812 6.99844C15.8812 7.61953 16.3828 8.12109 17.0039 8.12109C17.625 8.12109 18.1266 7.62187 18.1266 6.99844C18.1267 6.85095 18.0978 6.70489 18.0415 6.56859C17.9851 6.4323 17.9024 6.30847 17.7981 6.20419C17.6939 6.0999 17.57 6.01721 17.4337 5.96086C17.2974 5.90451 17.1514 5.87559 17.0039 5.87578ZM21.3703 12C21.3703 10.7062 21.382 9.42422 21.3094 8.13281C21.2367 6.63281 20.8945 5.30156 19.7976 4.20469C18.6984 3.10547 17.3695 2.76562 15.8695 2.69297C14.5758 2.62031 13.2937 2.63203 12.0023 2.63203C10.7086 2.63203 9.42655 2.62031 8.13515 2.69297C6.63515 2.76562 5.3039 3.10781 4.20702 4.20469C3.1078 5.3039 2.76796 6.63281 2.6953 8.13281C2.62265 9.42656 2.63436 10.7086 2.63436 12C2.63436 13.2914 2.62265 14.5758 2.6953 15.8672C2.76796 17.3672 3.11015 18.6984 4.20702 19.7953C5.30624 20.8945 6.63515 21.2344 8.13515 21.307C9.4289 21.3797 10.7109 21.368 12.0023 21.368C13.2961 21.368 14.5781 21.3797 15.8695 21.307C17.3695 21.2344 18.7008 20.8922 19.7976 19.7953C20.8969 18.6961 21.2367 17.3672 21.3094 15.8672C21.3844 14.5758 21.3703 13.2937 21.3703 12ZM19.3078 17.5266C19.1367 17.9531 18.9305 18.2719 18.6 18.6C18.2695 18.9305 17.9531 19.1367 17.5266 19.3078C16.2937 19.7977 13.3664 19.6875 12 19.6875C10.6336 19.6875 7.7039 19.7977 6.47108 19.3102C6.04452 19.1391 5.72577 18.9328 5.39765 18.6023C5.06718 18.2719 4.86093 17.9555 4.68983 17.5289C4.20233 16.2937 4.31249 13.3664 4.31249 12C4.31249 10.6336 4.20233 7.7039 4.68983 6.47109C4.86093 6.04453 5.06718 5.72578 5.39765 5.39765C5.72811 5.06953 6.04452 4.86094 6.47108 4.68984C7.7039 4.20234 10.6336 4.3125 12 4.3125C13.3664 4.3125 16.2961 4.20234 17.5289 4.68984C17.9555 4.86094 18.2742 5.06719 18.6023 5.39765C18.9328 5.72812 19.1391 6.04453 19.3101 6.47109C19.7976 7.7039 19.6875 10.6336 19.6875 12C19.6875 13.3664 19.7976 16.2937 19.3078 17.5266Z" fill="#4F4F4F"/>
</svg>
