<svg width="36" height="36" viewBox="0 0 36 36" fill="none" xmlns="http://www.w3.org/2000/svg">
<g clip-path="url(#clip0_255_258)">
<path d="M30.15 11.55L28.65 13.05C31.35 15.75 31.35 19.95 28.65 22.8L30.15 24.3C33.9 20.85 33.9 15.15 30.15 11.55ZM27 14.7L25.5 16.2C26.25 17.25 26.25 18.6 25.5 19.65L27 21.15C28.8 19.35 28.8 16.65 27 14.7ZM21 1.5H6C4.35 1.5 3 2.85 3 4.5V31.5C3 33.15 4.35 34.5 6 34.5H21C22.65 34.5 24 33.15 24 31.5V4.5C24 2.85 22.65 1.5 21 1.5ZM21 30H6V6H21V30Z" fill="#4F4F4F"/>
</g>
<defs>
<clipPath id="clip0_255_258">
<rect width="36" height="36" fill="white"/>
</clipPath>
</defs>
</svg>
