<svg width="39" height="40" viewBox="0 0 39 40" fill="none" xmlns="http://www.w3.org/2000/svg">
<path d="M23.5635 9.22657C25.1914 9.54418 26.6875 10.3403 27.8603 11.5131C29.0331 12.6859 29.8293 14.182 30.1469 15.8099M23.5635 2.5599C26.9457 2.93563 30.0995 4.45019 32.5073 6.85491C34.915 9.25964 36.4335 12.4116 36.8135 15.7932M35.1469 29.0932V34.0932C35.1487 34.5574 35.0537 35.0169 34.8677 35.4421C34.6818 35.8674 34.409 36.2492 34.067 36.563C33.725 36.8768 33.3212 37.1157 32.8814 37.2644C32.4417 37.4131 31.9758 37.4683 31.5135 37.4266C26.3849 36.8693 21.4585 35.1168 17.1302 32.3099C13.1032 29.751 9.68909 26.3369 7.1302 22.3099C4.31349 17.9619 2.5606 13.0116 2.01353 7.8599C1.97188 7.39901 2.02665 6.9345 2.17436 6.49594C2.32207 6.05738 2.55948 5.65438 2.87147 5.3126C3.18346 4.97082 3.5632 4.69775 3.98651 4.51077C4.40982 4.32379 4.86743 4.227 5.3302 4.22657H10.3302C11.139 4.21861 11.9232 4.50503 12.5365 5.03246C13.1497 5.55988 13.5503 6.29231 13.6635 7.09324C13.8746 8.69335 14.2659 10.2644 14.8302 11.7766C15.0544 12.3731 15.103 13.0214 14.97 13.6447C14.8371 14.268 14.5283 14.8401 14.0802 15.2932L11.9635 17.4099C14.3361 21.5825 17.791 25.0373 21.9635 27.4099L24.0802 25.2932C24.5333 24.8451 25.1055 24.5363 25.7287 24.4034C26.352 24.2705 27.0003 24.319 27.5969 24.5432C29.109 25.1075 30.6801 25.4989 32.2802 25.7099C33.0898 25.8241 33.8292 26.2319 34.3578 26.8557C34.8863 27.4795 35.1671 28.2759 35.1469 29.0932Z" stroke="#FF4E01" stroke-width="2" stroke-linecap="round" stroke-linejoin="round"/>
</svg>
