<svg width="25" height="24" viewBox="0 0 25 24" fill="none" xmlns="http://www.w3.org/2000/svg">
<g clip-path="url(#clip0_143_99)">
<path d="M16.5214 0C15.7264 0.001 14.7274 0.095 13.3544 0.313L8.75441 1.042C5.61641 1.539 4.53041 2.045 3.48041 2.84C2.44199 3.61987 1.66164 4.69355 1.24041 5.922C0.810413 7.167 0.663413 8.356 1.16041 11.493L1.88941 16.093C2.38641 19.231 2.89241 20.313 3.68741 21.366C4.46729 22.4044 5.54097 23.1848 6.76941 23.606C8.01441 24.037 9.20341 24.184 12.3404 23.687L16.9404 22.958C20.0784 22.461 21.1604 21.955 22.2134 21.159C23.252 20.3797 24.0324 19.3063 24.4534 18.078C24.8844 16.833 25.0314 15.644 24.5354 12.507L23.8054 7.907C23.3084 4.769 22.8024 3.683 22.0064 2.633C21.2272 1.59439 20.1537 0.813964 18.9254 0.393C18.2254 0.152 17.5424 0 16.5214 0ZM11.2024 4.566C11.2034 4.566 11.2044 4.566 11.2054 4.566C11.3311 4.56465 11.453 4.60888 11.5487 4.69051C11.6443 4.77214 11.707 4.88564 11.7254 5.01L12.4954 9.875C12.5068 9.94302 12.5045 10.0126 12.4888 10.0798C12.473 10.1469 12.444 10.2102 12.4035 10.2661C12.3631 10.3219 12.3119 10.3692 12.253 10.405C12.1941 10.4409 12.1286 10.4647 12.0604 10.475L7.20141 11.245C7.13317 11.2567 7.06328 11.2546 6.99585 11.2389C6.92842 11.2232 6.8648 11.1942 6.80873 11.1536C6.75266 11.113 6.70526 11.0616 6.66931 11.0024C6.63337 10.9432 6.60961 10.8775 6.59941 10.809L5.82941 5.943C5.81802 5.87498 5.82028 5.80537 5.83605 5.73823C5.85182 5.67109 5.8808 5.60775 5.92128 5.55191C5.96176 5.49608 6.01295 5.44885 6.07186 5.41298C6.13076 5.37712 6.19622 5.35333 6.26441 5.343L11.1244 4.573C11.1502 4.56871 11.1763 4.56637 11.2024 4.566ZM10.7674 5.692L6.94441 6.297L7.55641 10.127L11.3694 9.522L10.7674 5.692ZM17.2714 8.602C18.1 8.59695 18.8998 8.90629 19.5093 9.46764C20.1188 10.029 20.4928 10.8006 20.5559 11.6268C20.6189 12.4531 20.3663 13.2725 19.849 13.9198C19.3317 14.5672 18.5882 14.9943 17.7684 15.115C16.9146 15.2456 16.0438 15.0319 15.3476 14.5207C14.6513 14.0095 14.1865 13.2428 14.0554 12.389C13.9815 11.923 14.0091 11.4465 14.1365 10.9921C14.2639 10.5378 14.488 10.1163 14.7934 9.75668C15.0989 9.39701 15.4784 9.10762 15.9061 8.90832C16.3338 8.70902 16.7996 8.60453 17.2714 8.602ZM17.2174 9.66C16.9097 9.66167 16.6057 9.72713 16.3246 9.85222C16.0434 9.97732 15.7913 10.1593 15.584 10.3868C15.3768 10.6143 15.219 10.8822 15.1205 11.1738C15.0221 11.4653 14.9851 11.7741 15.012 12.0806C15.039 12.3872 15.1291 12.6848 15.2769 12.9547C15.4246 13.2246 15.6267 13.461 15.8704 13.6489C16.1141 13.8368 16.3941 13.9721 16.6927 14.0463C16.9913 14.1205 17.3021 14.132 17.6054 14.08C17.8917 14.0327 18.1659 13.9294 18.4122 13.7761C18.6586 13.6227 18.8723 13.4223 19.0411 13.1863C19.2099 12.9503 19.3306 12.6834 19.3962 12.4007C19.4618 12.1181 19.4711 11.8252 19.4234 11.539C19.3406 11.014 19.0726 10.536 18.668 10.1914C18.2634 9.84677 17.7489 9.65828 17.2174 9.66ZM10.7674 12.66C10.8495 12.6587 10.9307 12.6769 11.0044 12.7131C11.0781 12.7492 11.1422 12.8023 11.1914 12.868L15.0154 17.832C15.0725 17.9036 15.1097 17.9891 15.1232 18.0797C15.1367 18.1703 15.126 18.2629 15.0922 18.3481C15.0584 18.4332 15.0027 18.5079 14.9307 18.5646C14.8588 18.6214 14.7731 18.658 14.6824 18.671L8.75041 19.608C8.66015 19.6237 8.56734 19.6153 8.48138 19.5836C8.39542 19.5519 8.31935 19.4981 8.26089 19.4275C8.20243 19.357 8.16364 19.2722 8.14845 19.1819C8.13327 19.0915 8.14222 18.9988 8.17441 18.913L10.2824 13.012C10.3171 12.9103 10.3825 12.8219 10.4695 12.7588C10.5565 12.6958 10.661 12.6613 10.7684 12.66H10.7674ZM10.9474 14.271L9.45741 18.438L13.6434 17.774L10.9474 14.271Z" fill="#FF4E01"/>
</g>
<defs>
<clipPath id="clip0_143_99">
<rect width="24" height="24" fill="white" transform="translate(0.847412)"/>
</clipPath>
</defs>
</svg>
